<svg xmlns="http://www.w3.org/2000/svg" viewBox="0 0 200 99.18"><title>off-grid-living</title><g id="a4b4bd50-aed9-4deb-a654-648f44f380ef" data-name="Layer 2"><g id="bfde5c4f-00b0-4636-8998-84dda04e228a" data-name="Layer 2"><path d="M101.66,45.67Q99,41.72,99,34.3V15.55q0-7.48,2.67-11.31t9.5-3.83q6.24,0,8.93,3.47t2.7,10.36V15.9h-4.27V14.24q0-5.4-1.54-7.8T111.19,4a7.54,7.54,0,0,0-4.84,1.37,6.51,6.51,0,0,0-2.25,3.71,25.84,25.84,0,0,0-.57,6V34.84c0,3.76.55,6.55,1.63,8.37s3.12,2.73,6.09,2.73q4.22,0,5.87-2.76t1.67-8.46V29.08h-7.13V25.7h11.28V49H120l-.53-5.47A9.39,9.39,0,0,1,116.41,48a8.94,8.94,0,0,1-5.58,1.6Q104.37,49.62,101.66,45.67Z" fill="#fff"/><path d="M128.4.89h10.87q6.47,0,9.2,3.11t2.73,9.11a16.81,16.81,0,0,1-1.49,7.54,7,7,0,0,1-5.16,3.74L151.91,49h-4.39l-7.07-23.63h-7.54V49H128.4ZM139,22c2.89,0,4.9-.72,6.05-2.14s1.72-3.68,1.72-6.77-.54-5.38-1.63-6.76-3.09-2.08-6-2.08h-6.24V22Z" fill="#fff"/><path d="M156.54.89h4.51V49h-4.51Z" fill="#fff"/><path d="M167.22.89h10.45q7.13,0,10.09,3.65t3,10.47V34.13q0,7.17-2.88,11T178.08,49H167.22Zm10.57,44.69a8.31,8.31,0,0,0,5.43-1.51,6.93,6.93,0,0,0,2.34-4,32.76,32.76,0,0,0,.54-6.62V15.49a24.38,24.38,0,0,0-.65-6.26,6.21,6.21,0,0,0-2.5-3.6,9.52,9.52,0,0,0-5.34-1.24h-5.88V45.58Z" fill="#fff"/><path d="M12.48,45.26q-3.21-4-3.21-11.72v-18q0-7.65,3.21-11.57T23.16,0q7.43,0,10.63,3.92T37,15.49v18q0,7.65-3.23,11.69t-10.6,4Q15.68,49.27,12.48,45.26ZM27.08,41a11.4,11.4,0,0,0,1-5.35V13.47a11.29,11.29,0,0,0-1-5.28c-.65-1.19-2-1.78-3.95-1.78s-3.3.6-4,1.81a11,11,0,0,0-1,5.25V35.61a11.4,11.4,0,0,0,1,5.35c.68,1.22,2,1.84,4,1.84S26.41,42.18,27.08,41Z" fill="#fff"/><path d="M42.87.53H62.63V6.59h-11v14h9v6.11h-9v21.9H42.87Z" fill="#fff"/><path d="M66.79.53H86.55V6.59h-11v14h9v6.11h-9v21.9H66.79Z" fill="#fff"/><path d="M34.11,72.93h2.43V97H43.9v1.83H34.11Z" fill="#fff"/><path d="M58.54,72.93H61v25.9H58.54Z" fill="#fff"/><path d="M76.22,72.93h2.33l4.89,21.45L88,72.93h2.31l-5.86,25.9h-2.2Z" fill="#fff"/><path d="M105.56,72.93H108v25.9h-2.43Z" fill="#fff"/><path d="M124.74,72.93h1.76L134.75,93V72.93h2.11v25.9h-1.73L126.85,78.5V98.83h-2.11Z" fill="#fff"/><path d="M154.43,97.05A10.76,10.76,0,0,1,153,90.93V80.83a10.61,10.61,0,0,1,1.44-6.09c1-1.38,2.66-2.06,5.11-2.06q3.36,0,4.82,1.87a9,9,0,0,1,1.45,5.58V81h-2.3v-.89a8.15,8.15,0,0,0-.83-4.21,3.42,3.42,0,0,0-3.1-1.29,4.08,4.08,0,0,0-2.61.73,3.52,3.52,0,0,0-1.21,2,13.6,13.6,0,0,0-.31,3.21V91.22a9.11,9.11,0,0,0,.88,4.51,3.51,3.51,0,0,0,3.28,1.47,3.38,3.38,0,0,0,3.16-1.49,9,9,0,0,0,.9-4.56v-3h-3.84V86.3h6.08V98.83h-1.57L164,95.89a5.07,5.07,0,0,1-1.66,2.43,4.85,4.85,0,0,1-3,.86Q155.88,99.18,154.43,97.05Z" fill="#fff"/><rect y="61.63" width="200" height="0.67" fill="#fff"/></g></g></svg>